<svg width="249" height="39" xmlns="http://www.w3.org/2000/svg" xmlns:xlink="http://www.w3.org/1999/xlink"><defs><path id="a" d="M0 0h248.134v38.567H0z"/></defs><g fill="none" fill-rule="evenodd"><mask id="b" fill="#fff"><use xlink:href="#a"/></mask><path d="M20.899 6.39h.43V.893H-.001v.368c2.46 1.998 2.797 2.582 2.797 4.764v26.612c0 2.182-.337 2.764-2.797 4.763v.37h11.064v-.37c-2.49-1.872-2.92-2.581-2.92-4.67V19.545h2.396c3.136 0 3.69.215 6.361 3.626h.37v-8.664h-.37c-2.672 3.408-3.225 3.626-6.361 3.626H8.143V2.242H11.8c1.477 0 2.735.491 9.1 4.149zm8.416 15.642h-7.402l3.507-10.718c.162.384.325.81.5 1.314l3.395 9.404zm5.825 3.136L28.721 7.527H22.91v.34c.817.76 1.342 1.34 1.758 1.98l-4.8 14.582c-.859 2.613-1.413 3.443-3.597 5.47v.372h6.732V29.9c-1.844-1.136-2.458-1.872-2.458-2.95 0-.52.154-1.226.554-2.426l.422-1.292h8.226l.753 2.087c.463 1.325.554 1.878.554 2.37 0 .766-.523 1.412-1.935 2.21v.372h9.402V29.9c-2.214-1.813-2.55-2.424-3.38-4.732zM49.267 6.391h.432V1.076c-2.06-.37-4.365-.677-6.485-.677-6.18 0-9.22 4.12-9.22 8.513 0 5.07 3.289 8.112 7.498 11.618 4.547 3.81 7.221 6.114 7.221 10.507 0 3.627-2.395 5.84-5.59 5.84-2.797 0-5.01-1.109-10.884-5.718h-.516l2.147 5.995a29.577 29.577 0 0 0 7.933 1.106c7.036 0 11.123-4.27 11.123-10.202 0-5.47-3.197-8.266-7.747-11.954C41 12.72 38.142 9.988 38.142 6.054c0-2.551 1.691-4.302 4.304-4.302 1.813 0 3.073.706 6.82 4.639zm27.076 0h.428V.89H51.635v5.5h.428c5.932-3.747 7.132-4.242 8.514-4.242h.954v30.58c0 2.089-.432 2.798-2.922 4.67v.37h11.187v-.37c-2.49-1.872-2.921-2.581-2.921-4.67V2.15h.955c1.38 0 2.58.495 8.513 4.242zm32.058-.981h.434V.676C106.345.306 103.148 0 100.23 0 87.167 0 79.422 7.285 79.422 19.36c0 11.864 7.406 19.208 20.313 19.208 3.35 0 6.362-.491 8.76-1.138l.95-5.253h-.426c-4.826 4.087-6.978 5.039-10.48 5.039-9.652 0-12.879-7.285-12.879-18.07 0-10.972 3.227-17.671 12.355-17.671 2.917 0 4.981.675 10.386 3.936zm-1.245 13.736c0 6.086-.52 10.109-4.917 10.109-4.425 0-4.918-4.023-4.918-10.11 0-6.085.493-10.111 4.918-10.111 4.426 0 4.917 4.026 4.917 10.112zm5.224 0c0-6.426-3.81-11.25-10.14-11.25s-10.141 4.86-10.141 11.25c0 6.36 3.81 11.245 10.14 11.245 6.332 0 10.141-4.885 10.141-11.245zm22.605 18.558l10.94.064v-.37c-2.458-1.998-2.794-2.58-2.794-4.762V6.024c0-2.182.336-2.766 2.795-4.734V.922L138.182.86 129.583 28.1 120.788.891h-7.835v.369c1.477 1.284 2.382 2.12 3.04 2.979v25.784c0 2.98-.368 4.18-3.136 7.376v.37h8.762v-.37c-3.69-3.04-4.21-4.27-4.21-7.376V7.082c.06.176.12.342.18.538l9.87 30.456h.428L137.78 6.73v25.875c0 2.183-.337 2.765-2.795 4.733v.366zm31.67-25.532c0 6.913-1.628 9.801-6.915 9.801h-3.043V2.242h2.15c5.84 0 7.808 2.49 7.808 9.93zm5.714-.248c0-8.298-5.808-11.032-13.674-11.032h-10.14v.368c2.456 1.998 2.793 2.582 2.793 4.764v26.612c0 2.182-.337 2.764-2.793 4.763v.37h11.062v-.37c-2.491-1.872-2.92-2.581-2.92-4.67v-9.404h2.886c6.948 0 12.786-2.952 12.786-11.401zm13.498 12.385H175.43l5.141-18.587c.109.317.216.656.325 1.038l4.97 17.55zm62.268-23.05V.893h-8.326v.368c2.243 1.998 2.918 2.95 2.918 4.395 0 .768-.184 1.382-.801 2.797l-4.78 11.179-6.25-13.855c-.493-1.073-.649-1.659-.649-2.21 0-.983.556-1.538 2.06-2.306V.892H213.87v.368c4.118 3.044 4.673 4.24 4.673 7.592v21.21L203.147.891h-7.655v.368c1.597 1.37 2.523 2.225 3.32 3.283v25.57c0 2.779-.309 3.988-2.513 7.286-1.698-2.128-2.068-3.15-2.928-6.176L184.676.892h-7.467v.368c1.174 1.03 1.915 1.744 2.47 2.58l-7.233 26.032c-1.045 3.78-1.877 4.916-4.642 7.527v.37h8.914v-.37c-2.552-1.936-3.349-2.919-3.349-4.61 0-.675.154-1.63.523-2.917l1.155-4.18h11.207l1.558 5.5c.49 1.722.675 2.46.675 3.135 0 .952-.395 1.598-2.273 3.072v.37h18.685v-.37c-4.122-3.04-4.672-4.24-4.672-7.285V6.836c.03.062.06.108.09.172l16.258 30.76h3.383V8.852c0-3.06.304-4.277 2.429-7.573 1.384 1.675 2.262 3.083 3.406 5.637l6.638 14.667V32.73c0 2.088-.432 2.797-2.92 4.669v.37H240.7v-.37c-2.492-1.872-2.919-2.581-2.919-4.67V21.417l5.528-12.873c1.171-2.735 2.06-4.024 4.827-7.283z" fill="#000000" mask="url(#b)"/></g></svg>