<svg width="273" height="273" viewBox="0 0 273 273" fill="none" xmlns="http://www.w3.org/2000/svg">
<g filter="url(#filter0_i)">
<path d="M1.43852 60.4434C2.74999 27.9951 27.9952 2.78308 60.4431 1.46104C80.6128 0.639257 106.079 0 136.5 0C167.206 0 192.864 0.651283 213.122 1.48417C245.311 2.80757 270.326 27.6944 271.606 59.8854C272.395 79.737 273 105.17 273 136.5C273 168.331 272.376 194.075 271.568 214.063C270.284 245.823 245.819 270.318 214.059 271.59C194.165 272.387 168.473 273 136.5 273C104.831 273 79.3235 272.399 59.5094 271.613C27.4915 270.343 2.79114 245.518 1.47703 213.502C0.647563 193.294 0 167.568 0 136.5C0 105.915 0.627605 80.5068 1.43852 60.4434Z" fill="url(#paint0_linear)"/>
</g>
<g filter="url(#filter1_dii)">
<path d="M184.548 162.936C184.548 188.507 163.819 209.236 138.248 209.236C112.676 209.236 91.9468 188.507 91.9468 162.936C91.9468 137.364 112.676 116.635 138.248 116.635C138.248 135.187 138.248 162.936 138.248 162.936C138.248 162.936 164.6 162.936 184.548 162.936Z" stroke="white" stroke-width="19.2982" stroke-linecap="round" stroke-linejoin="round"/>
<rect x="82" y="70.5225" width="110" height="43.4211" stroke="white" stroke-width="19.2982" stroke-linecap="round" stroke-linejoin="round"/>
</g>
<defs>
<filter id="filter0_i" x="0" y="0" width="276" height="276" filterUnits="userSpaceOnUse" color-interpolation-filters="sRGB">
<feFlood flood-opacity="0" result="BackgroundImageFix"/>
<feBlend mode="normal" in="SourceGraphic" in2="BackgroundImageFix" result="shape"/>
<feColorMatrix in="SourceAlpha" type="matrix" values="0 0 0 0 0 0 0 0 0 0 0 0 0 0 0 0 0 0 127 0" result="hardAlpha"/>
<feOffset dx="3" dy="3"/>
<feGaussianBlur stdDeviation="1.5"/>
<feComposite in2="hardAlpha" operator="arithmetic" k2="-1" k3="1"/>
<feColorMatrix type="matrix" values="0 0 0 0 1 0 0 0 0 1 0 0 0 0 1 0 0 0 0.2 0"/>
<feBlend mode="normal" in2="shape" result="effect1_innerShadow"/>
</filter>
<filter id="filter1_dii" x="46.3508" y="49.0287" width="181.298" height="210.012" filterUnits="userSpaceOnUse" color-interpolation-filters="sRGB">
<feFlood flood-opacity="0" result="BackgroundImageFix"/>
<feColorMatrix in="SourceAlpha" type="matrix" values="0 0 0 0 0 0 0 0 0 0 0 0 0 0 0 0 0 0 127 0"/>
<feOffset dy="14.1551"/>
<feGaussianBlur stdDeviation="13"/>
<feColorMatrix type="matrix" values="0 0 0 0 0.0846528 0 0 0 0 0.105365 0 0 0 0 0.191667 0 0 0 0.6 0"/>
<feBlend mode="normal" in2="BackgroundImageFix" result="effect1_dropShadow"/>
<feBlend mode="normal" in="SourceGraphic" in2="effect1_dropShadow" result="shape"/>
<feColorMatrix in="SourceAlpha" type="matrix" values="0 0 0 0 0 0 0 0 0 0 0 0 0 0 0 0 0 0 127 0" result="hardAlpha"/>
<feOffset dy="-9.43676"/>
<feGaussianBlur stdDeviation="5.89798"/>
<feComposite in2="hardAlpha" operator="arithmetic" k2="-1" k3="1"/>
<feColorMatrix type="matrix" values="0 0 0 0 0.141176 0 0 0 0 0.164706 0 0 0 0 0.262745 0 0 0 0.45 0"/>
<feBlend mode="normal" in2="shape" result="effect2_innerShadow"/>
<feColorMatrix in="SourceAlpha" type="matrix" values="0 0 0 0 0 0 0 0 0 0 0 0 0 0 0 0 0 0 127 0" result="hardAlpha"/>
<feOffset dy="-3.53879"/>
<feGaussianBlur stdDeviation="2.35919"/>
<feComposite in2="hardAlpha" operator="arithmetic" k2="-1" k3="1"/>
<feColorMatrix type="matrix" values="0 0 0 0 1 0 0 0 0 1 0 0 0 0 1 0 0 0 0.25 0"/>
<feBlend mode="normal" in2="effect2_innerShadow" result="effect3_innerShadow"/>
</filter>
<linearGradient id="paint0_linear" x1="136.5" y1="0" x2="136.5" y2="273" gradientUnits="userSpaceOnUse">
<stop stop-color="#353C59"/>
<stop offset="1" stop-color="#2E3552"/>
</linearGradient>
</defs>
</svg>
