<svg width="116" height="116" viewBox="0 0 116 116" fill="none" xmlns="http://www.w3.org/2000/svg">
<g clip-path="url(#clip0)">
<path d="M57.7 115.4C89.5668 115.4 115.4 89.5668 115.4 57.7C115.4 25.8332 89.5668 0 57.7 0C25.8332 0 0 25.8332 0 57.7C0 89.5668 25.8332 115.4 57.7 115.4Z" fill="#23B7A0"/>
<path d="M85.5 34.7C96.8 48.2 96.8 68 85.5 81.5L94 90C110 71.8 110 44.4 94 26.2L85.5 34.7Z" fill="white"/>
<path d="M29.8 81.5C18.5 68 18.5 48.2 29.8 34.7L21.3 26.2C5.29999 44.4 5.29999 71.8 21.3 90L29.8 81.5Z" fill="white"/>
<path d="M81.1 85.9C67.6 97.2 47.8 97.2 34.3 85.9L25.8 94.4C44 110.4 71.4 110.4 89.6 94.4L81.1 85.9Z" fill="white"/>
<path d="M37.7 17.8C39.4 20.4 38.8 22.9 36 24.8L33.8 26.3L35.9 29.4L33.4 31.1L25.9 20.1L30.6 16.9C33.6 15.1 36.1 15.4 37.7 17.8ZM35.4 19.5C34.6 18.3 33.4 18.2 32 19.1L30 20.5L32.5 24.2L34.6 22.8C35.9 21.9 36.3 20.8 35.4 19.5Z" fill="white"/>
<path d="M40.9 11.1L46 24.2L43.3 25.3L38.2 12.2L40.9 11.1Z" fill="white"/>
<path d="M54 22.4L53.8 21.2C53.3 22.1 52.2 22.8 50.8 23C48.6 23.3 47.1 22.2 46.8 20.4C46.5 18.5 47.7 17.2 50.2 16.8L53 16.4V16.2C52.8 15.1 52 14.6 50.6 14.8C49.7 14.9 48.7 15.4 47.7 16.1L46.5 14.2C47.9 13.2 49.1 12.6 50.9 12.3C53.6 11.9 55.4 13 55.7 15.3L56.7 21.9L54 22.4ZM53.4 18.9L53.3 18L51 18.4C49.9 18.6 49.4 19 49.5 19.8C49.6 20.6 50.3 21 51.3 20.8C52.5 20.6 53.4 19.8 53.4 18.9Z" fill="white"/>
<path d="M69.9 17.2L68.9 23.5L66 23.1L66.9 17.6C67.1 16.3 66.5 15.4 65.3 15.2C63.9 15 62.8 15.9 62.6 17.4L61.8 22.4L58.9 21.9L60.6 11.8L63.5 12.3L63 14.1C63.9 13 65.2 12.6 66.8 12.8C69.1 13.1 70.3 14.9 69.9 17.2Z" fill="white"/>
<path d="M84.1 19.5C82.2 18.3 79.7 18.8 78.5 20.7C77.2 22.6 77.7 25.1 79.7 26.3C80.7 27 82.1 27.2 83.4 26.9L83.8 29.5C81.8 29.9 79.6 29.6 78 28.6C74.7 26.4 73.8 22.3 75.9 19.1C78 15.9 82.1 15.1 85.5 17.3C87.1 18.3 88.3 20.2 88.7 22L86 22.9C85.8 21.5 85.1 20.2 84.1 19.5Z" fill="white"/>
</g>
<defs>
<clipPath id="clip0">
<rect width="115.3" height="115.3" fill="white"/>
</clipPath>
</defs>
</svg>
