<svg width="116" height="116" viewBox="0 0 116 116" fill="none" xmlns="http://www.w3.org/2000/svg">
<path d="M85.5 34.7C96.8 48.2 96.8 68 85.5 81.5L94 90C110 71.8 110 44.4 94 26.2L85.5 34.7Z" fill="#23B7A0"/>
<path d="M29.8 81.5C18.5 68 18.5 48.2 29.8 34.7L21.3 26.2C5.29999 44.4 5.29999 71.8 21.3 90L29.8 81.5Z" fill="#23B7A0"/>
<path d="M81.1 85.9C67.6 97.2 47.8 97.2 34.3 85.9L25.8 94.4C44 110.4 71.4 110.4 89.6 94.4L81.1 85.9Z" fill="#23B7A0"/>
<path d="M38.1 17.1C39.9 19.8 39.2 22.5 36.3 24.5L34 26L36.2 29.3L33.6 31L25.9 19.3L30.8 16C33.7 14.2 36.4 14.5 38.1 17.1ZM35.7 18.8C34.8 17.5 33.6 17.4 32.1 18.4L29.9 19.8L32.5 23.7L34.7 22.3C36.2 21.4 36.6 20.2 35.7 18.8Z" fill="#23B7A0"/>
<path d="M41.6 10L46.7 23.9L43.9 25L38.8 11.1L41.6 10Z" fill="#23B7A0"/>
<path d="M55.1 22.3L55 21C54.4 22 53.3 22.6 51.8 22.8C49.5 23.1 48 21.9 47.7 19.9C47.5 17.9 48.8 16.5 51.4 16.2L54.3 15.8V15.6C54.2 14.5 53.3 13.9 51.9 14.1C50.9 14.2 49.9 14.7 48.8 15.4L47.6 13.4C49.1 12.4 50.4 11.8 52.3 11.6C55.2 11.3 57 12.5 57.3 14.9L58.2 21.9L55.1 22.3ZM54.7 18.6L54.6 17.6L52.2 18C51 18.1 50.5 18.6 50.6 19.4C50.7 20.2 51.4 20.7 52.4 20.5C53.7 20.4 54.6 19.6 54.7 18.6Z" fill="#23B7A0"/>
<path d="M72 17.5L70.6 24.1L67.6 23.5L68.8 17.8C69.1 16.5 68.5 15.5 67.2 15.2C65.7 14.9 64.5 15.8 64.2 17.4L63.1 22.6L60.1 22L62.3 11.5L65.3 12.1L65 13.9C66 12.7 67.4 12.4 69.1 12.7C71.4 13.2 72.6 15.1 72 17.5Z" fill="#23B7A0"/>
<path d="M84.6 19.2C82.6 17.9 80 18.4 78.7 20.5C77.4 22.5 77.9 25.1 79.9 26.4C81 27.1 82.5 27.3 83.8 27L84.3 29.7C82.2 30.2 79.9 29.8 78.2 28.7C74.7 26.4 73.8 22.1 76 18.7C78.2 15.3 82.6 14.5 86.1 16.9C87.8 18 89.1 19.9 89.4 21.9L86.6 22.8C86.4 21.3 85.7 19.9 84.6 19.2Z" fill="#23B7A0"/>
</svg>
