<svg width="450" height="252" viewBox="0 0 450 252" fill="none" xmlns="http://www.w3.org/2000/svg">
<path fill-rule="evenodd" clip-rule="evenodd" d="M367.948 54.2277C368.118 53.0513 368.206 51.8485 368.206 50.6252C368.206 36.8167 357.012 25.6227 343.204 25.6227C329.395 25.6227 318.201 36.8167 318.201 50.6252C318.201 64.4337 329.395 75.6277 343.204 75.6277C354.061 75.6277 363.302 68.7068 366.756 59.0359H354.375C351.983 62.6374 347.89 65.0115 343.243 65.0115C336.748 65.0115 331.335 60.3738 330.137 54.2292H351.858V54.2277H367.948ZM355.534 44.1102H330.95C332.983 39.3322 337.721 35.9822 343.242 35.9822C348.762 35.9822 353.5 39.3322 355.534 44.1102Z" fill="white"/>
<path fill-rule="evenodd" clip-rule="evenodd" d="M314.386 50.5106C314.386 64.3191 304.104 75.5131 291.421 75.5131C285.99 75.5131 280.999 73.4601 277.067 70.028V90.5552H266.472V26.2262H277.067V30.9931C280.999 27.561 285.99 25.5081 291.421 25.5081C304.104 25.5081 314.386 36.7021 314.386 50.5106ZM303.186 50.4958C303.186 57.8704 297.467 63.8487 290.413 63.8487C283.359 63.8487 277.641 57.8704 277.641 50.4958C277.641 43.1212 283.359 37.1429 290.413 37.1429C297.467 37.1429 303.186 43.1212 303.186 50.4958Z" fill="white"/>
<path fill-rule="evenodd" clip-rule="evenodd" d="M221.905 19.7259V9.27579L173.138 9.27579L173.138 19.7259L191.716 19.7259V75.4594H203.327V19.7259L221.905 19.7259Z" fill="white"/>
<path fill-rule="evenodd" clip-rule="evenodd" d="M249.937 26.2282H260.718L241.915 90.5547H231.133L236.262 73.0081H229.203L217.26 26.2315H228.042L234.013 49.6198L236.999 61.314H239.681L249.937 26.2282Z" fill="white"/>
<path d="M4.752 205.407L0 172.957H7.018L10.472 203.933L9.482 203.889L14.982 172.957H23.496L28.974 203.889L27.984 203.933L31.438 172.957H38.456L33.704 205.407H23.232L18.898 177.687H19.602L15.224 205.407H4.752Z" fill="black"/>
<path d="M43.9158 195.771V191.261H59.4038L58.7438 192.405C58.7438 192.288 58.7438 192.178 58.7438 192.075C58.7438 191.958 58.7438 191.848 58.7438 191.745C58.7438 190.909 58.5458 190.11 58.1498 189.347C57.7538 188.57 57.1378 187.939 56.3018 187.455C55.4804 186.957 54.4244 186.707 53.1338 186.707C51.8431 186.707 50.7285 186.986 49.7898 187.543C48.8658 188.086 48.1544 188.871 47.6558 189.897C47.1718 190.924 46.9298 192.163 46.9298 193.615C46.9298 195.111 47.1644 196.395 47.6338 197.465C48.1178 198.521 48.8291 199.335 49.7678 199.907C50.7211 200.479 51.9018 200.765 53.3098 200.765C54.2191 200.765 55.0038 200.685 55.6638 200.523C56.3238 200.347 56.8591 200.127 57.2698 199.863C57.6951 199.599 58.0178 199.306 58.2378 198.983C58.4578 198.661 58.5898 198.345 58.6338 198.037H65.3658C65.2778 199.02 64.9405 199.988 64.3538 200.941C63.7671 201.88 62.9531 202.731 61.9118 203.493C60.8704 204.241 59.6018 204.835 58.1058 205.275C56.6244 205.715 54.9304 205.935 53.0238 205.935C50.4424 205.935 48.1911 205.422 46.2698 204.395C44.3484 203.354 42.8598 201.924 41.8038 200.105C40.7478 198.272 40.2198 196.16 40.2198 193.769C40.2198 191.349 40.7551 189.23 41.8258 187.411C42.9111 185.578 44.4144 184.155 46.3358 183.143C48.2718 182.117 50.5084 181.603 53.0458 181.603C55.6418 181.603 57.8858 182.124 59.7778 183.165C61.6698 184.192 63.1291 185.637 64.1558 187.499C65.1825 189.347 65.6958 191.503 65.6958 193.967C65.6958 194.334 65.6884 194.686 65.6738 195.023C65.6591 195.361 65.6371 195.61 65.6078 195.771H43.9158Z" fill="black"/>
<path d="M90.8548 205.935C88.9042 205.935 87.1075 205.473 85.4648 204.549C83.8222 203.611 82.5022 202.225 81.5048 200.391C80.5075 198.558 80.0088 196.299 80.0088 193.615C80.0088 191.049 80.5148 188.871 81.5268 187.081C82.5535 185.292 83.8882 183.935 85.5308 183.011C87.1882 182.073 88.9628 181.603 90.8548 181.603C92.7028 181.603 94.3895 182.073 95.9148 183.011C97.4548 183.95 98.6868 185.233 99.6108 186.861C100.535 188.475 100.997 190.337 100.997 192.449C100.997 192.523 100.997 192.596 100.997 192.669C100.997 192.728 100.997 192.794 100.997 192.867L98.0488 192.911C98.0488 192.867 98.0488 192.823 98.0488 192.779C98.0488 192.721 98.0488 192.669 98.0488 192.625C98.0488 191.525 97.7848 190.579 97.2568 189.787C96.7288 188.995 96.0468 188.387 95.2108 187.961C94.3748 187.521 93.5022 187.301 92.5928 187.301C91.0822 187.301 89.7768 187.807 88.6768 188.819C87.5768 189.817 87.0268 191.415 87.0268 193.615C87.0268 195.815 87.5768 197.436 88.6768 198.477C89.7915 199.504 91.0968 200.017 92.5928 200.017C93.5315 200.017 94.4188 199.797 95.2548 199.357C96.0908 198.903 96.7655 198.265 97.2788 197.443C97.7922 196.622 98.0488 195.654 98.0488 194.539L100.997 194.693C100.997 196.791 100.542 198.69 99.6328 200.391C98.7382 202.078 97.5208 203.427 95.9808 204.439C94.4555 205.437 92.7468 205.935 90.8548 205.935ZM98.0488 205.407V171.021H104.891V205.407H98.0488Z" fill="black"/>
<path d="M112.709 195.771V191.261H128.197L127.537 192.405C127.537 192.288 127.537 192.178 127.537 192.075C127.537 191.958 127.537 191.848 127.537 191.745C127.537 190.909 127.339 190.11 126.943 189.347C126.547 188.57 125.931 187.939 125.095 187.455C124.273 186.957 123.217 186.707 121.927 186.707C120.636 186.707 119.521 186.986 118.583 187.543C117.659 188.086 116.947 188.871 116.449 189.897C115.965 190.924 115.723 192.163 115.723 193.615C115.723 195.111 115.957 196.395 116.427 197.465C116.911 198.521 117.622 199.335 118.561 199.907C119.514 200.479 120.695 200.765 122.103 200.765C123.012 200.765 123.797 200.685 124.457 200.523C125.117 200.347 125.652 200.127 126.063 199.863C126.488 199.599 126.811 199.306 127.031 198.983C127.251 198.661 127.383 198.345 127.427 198.037H134.159C134.071 199.02 133.733 199.988 133.147 200.941C132.56 201.88 131.746 202.731 130.705 203.493C129.663 204.241 128.395 204.835 126.899 205.275C125.417 205.715 123.723 205.935 121.817 205.935C119.235 205.935 116.984 205.422 115.063 204.395C113.141 203.354 111.653 201.924 110.597 200.105C109.541 198.272 109.013 196.16 109.013 193.769C109.013 191.349 109.548 189.23 110.619 187.411C111.704 185.578 113.207 184.155 115.129 183.143C117.065 182.117 119.301 181.603 121.839 181.603C124.435 181.603 126.679 182.124 128.571 183.165C130.463 184.192 131.922 185.637 132.949 187.499C133.975 189.347 134.489 191.503 134.489 193.967C134.489 194.334 134.481 194.686 134.467 195.023C134.452 195.361 134.43 195.61 134.401 195.771H112.709Z" fill="black"/>
<path d="M146.671 205.891C144.97 205.891 143.452 205.62 142.117 205.077C140.797 204.535 139.763 203.75 139.015 202.723C138.267 201.697 137.893 200.45 137.893 198.983C137.893 197.326 138.348 195.977 139.257 194.935C140.166 193.894 141.369 193.102 142.865 192.559C144.376 192.002 146.011 191.635 147.771 191.459C150.338 191.21 152.105 190.983 153.073 190.777C154.056 190.572 154.547 190.213 154.547 189.699C154.547 189.685 154.547 189.67 154.547 189.655C154.547 188.79 154.129 188.108 153.293 187.609C152.472 187.111 151.32 186.861 149.839 186.861C148.27 186.861 147.067 187.147 146.231 187.719C145.41 188.277 144.999 189.135 144.999 190.293H138.289C138.289 188.416 138.795 186.832 139.807 185.541C140.834 184.251 142.22 183.275 143.965 182.615C145.71 181.941 147.683 181.603 149.883 181.603C151.936 181.603 153.836 181.919 155.581 182.549C157.326 183.165 158.727 184.097 159.783 185.343C160.854 186.59 161.389 188.174 161.389 190.095C161.389 190.403 161.389 190.711 161.389 191.019C161.389 191.313 161.389 191.613 161.389 191.921V200.193C161.389 200.795 161.404 201.374 161.433 201.931C161.477 202.474 161.565 202.973 161.697 203.427C161.844 203.941 162.027 204.366 162.247 204.703C162.467 205.041 162.65 205.275 162.797 205.407H156.087C155.984 205.305 155.823 205.092 155.603 204.769C155.398 204.447 155.222 204.073 155.075 203.647C154.899 203.134 154.767 202.621 154.679 202.107C154.606 201.579 154.569 200.963 154.569 200.259L155.977 201.227C155.566 202.195 154.899 203.031 153.975 203.735C153.066 204.425 151.98 204.96 150.719 205.341C149.472 205.708 148.123 205.891 146.671 205.891ZM148.497 200.787C149.568 200.787 150.565 200.597 151.489 200.215C152.428 199.819 153.19 199.203 153.777 198.367C154.364 197.531 154.657 196.439 154.657 195.089V192.735L156.351 194.385C155.383 194.737 154.261 195.031 152.985 195.265C151.724 195.485 150.462 195.661 149.201 195.793C147.705 195.94 146.583 196.197 145.835 196.563C145.102 196.915 144.735 197.517 144.735 198.367C144.735 199.174 145.05 199.783 145.681 200.193C146.312 200.589 147.25 200.787 148.497 200.787Z" fill="black"/>
<path d="M173.442 171.021V205.407H166.71V171.021H173.442Z" fill="black"/>
<path d="M189.62 205.407V182.043H196.374V205.407H189.62ZM192.986 178.237C191.93 178.237 191.006 177.959 190.214 177.401C189.436 176.844 189.048 176.059 189.048 175.047C189.048 174.021 189.436 173.229 190.214 172.671C191.006 172.114 191.93 171.835 192.986 171.835C194.056 171.835 194.98 172.114 195.758 172.671C196.55 173.229 196.946 174.021 196.946 175.047C196.946 176.074 196.55 176.866 195.758 177.423C194.98 177.966 194.056 178.237 192.986 178.237Z" fill="black"/>
<path d="M217.855 205.407V195.485C217.855 194.928 217.855 194.422 217.855 193.967C217.855 193.513 217.855 193.102 217.855 192.735C217.855 191.767 217.731 190.887 217.481 190.095C217.232 189.289 216.785 188.643 216.139 188.159C215.494 187.675 214.563 187.433 213.345 187.433C212.289 187.433 211.373 187.675 210.595 188.159C209.833 188.643 209.246 189.318 208.835 190.183C208.425 191.049 208.219 192.046 208.219 193.175L206.327 191.811C206.327 189.787 206.767 188.013 207.647 186.487C208.527 184.962 209.715 183.767 211.211 182.901C212.722 182.036 214.394 181.603 216.227 181.603C218.149 181.603 219.725 181.992 220.957 182.769C222.204 183.532 223.128 184.603 223.729 185.981C224.345 187.345 224.653 188.944 224.653 190.777C224.653 191.525 224.653 192.361 224.653 193.285C224.653 194.209 224.653 195.155 224.653 196.123V205.407H217.855ZM201.399 205.407V182.043H208.219V205.407H201.399Z" fill="black"/>
<path d="M254.817 205.913C252.969 205.913 251.275 205.422 249.735 204.439C248.195 203.457 246.963 202.129 246.039 200.457C245.115 198.771 244.653 196.879 244.653 194.781C244.653 194.723 244.653 194.671 244.653 194.627C244.653 194.569 244.653 194.503 244.653 194.429L247.601 194.363C247.601 194.407 247.601 194.451 247.601 194.495C247.601 194.539 247.601 194.583 247.601 194.627C247.601 195.713 247.865 196.666 248.393 197.487C248.921 198.294 249.603 198.917 250.439 199.357C251.275 199.797 252.147 200.017 253.057 200.017C254.553 200.017 255.851 199.504 256.951 198.477C258.065 197.436 258.623 195.815 258.623 193.615C258.623 191.415 258.073 189.817 256.973 188.819C255.873 187.807 254.567 187.301 253.057 187.301C252.147 187.301 251.275 187.521 250.439 187.961C249.603 188.387 248.921 188.995 248.393 189.787C247.865 190.579 247.601 191.525 247.601 192.625L244.653 192.449C244.653 190.337 245.115 188.475 246.039 186.861C246.963 185.233 248.195 183.957 249.735 183.033C251.275 182.095 252.969 181.625 254.817 181.625C256.709 181.625 258.476 182.087 260.119 183.011C261.761 183.935 263.089 185.292 264.101 187.081C265.127 188.871 265.641 191.049 265.641 193.615C265.641 196.299 265.142 198.558 264.145 200.391C263.147 202.21 261.827 203.589 260.185 204.527C258.542 205.451 256.753 205.913 254.817 205.913ZM240.759 205.407V171.021H247.601V205.407H240.759Z" fill="black"/>
<path d="M269.628 205.407V182.043H276.382V205.407H269.628ZM272.994 178.237C271.938 178.237 271.014 177.959 270.222 177.401C269.444 176.844 269.056 176.059 269.056 175.047C269.056 174.021 269.444 173.229 270.222 172.671C271.014 172.114 271.938 171.835 272.994 171.835C274.064 171.835 274.988 172.114 275.766 172.671C276.558 173.229 276.954 174.021 276.954 175.047C276.954 176.074 276.558 176.866 275.766 177.423C274.988 177.966 274.064 178.237 272.994 178.237Z" fill="black"/>
<path d="M297.533 202.635C298.97 202.782 300.224 203.061 301.295 203.471C302.38 203.867 303.224 204.461 303.825 205.253C304.426 206.031 304.727 207.072 304.727 208.377C304.727 209.888 304.229 211.171 303.231 212.227C302.249 213.298 300.804 214.112 298.897 214.669C296.99 215.227 294.68 215.505 291.967 215.505C287.963 215.505 284.861 214.926 282.661 213.767C280.476 212.623 279.383 211.091 279.383 209.169C279.383 208.627 279.442 208.135 279.559 207.695C279.691 207.27 279.852 206.903 280.043 206.595L286.247 207.497C286.174 207.6 286.093 207.754 286.005 207.959C285.932 208.179 285.895 208.451 285.895 208.773C285.895 209.551 286.474 210.13 287.633 210.511C288.806 210.893 290.317 211.083 292.165 211.083C293.47 211.083 294.585 210.988 295.509 210.797C296.448 210.621 297.159 210.357 297.643 210.005C298.142 209.653 298.391 209.25 298.391 208.795C298.391 208.135 298.068 207.703 297.423 207.497C296.792 207.292 296.059 207.145 295.223 207.057L286.379 206.155C284.751 205.994 283.402 205.525 282.331 204.747C281.26 203.97 280.725 202.921 280.725 201.601C280.725 200.78 280.952 200.032 281.407 199.357C281.862 198.668 282.382 198.103 282.969 197.663C283.556 197.209 284.047 196.923 284.443 196.805L287.919 198.565C287.64 198.609 287.311 198.785 286.929 199.093C286.563 199.401 286.379 199.761 286.379 200.171C286.379 200.582 286.584 200.934 286.995 201.227C287.42 201.521 288.19 201.719 289.305 201.821L297.533 202.635ZM299.843 182.043H305.849L303.407 191.019C302.952 192.721 302.278 194.239 301.383 195.573C300.488 196.893 299.293 197.935 297.797 198.697C296.316 199.46 294.446 199.841 292.187 199.841C289.811 199.841 287.75 199.475 286.005 198.741C284.274 198.008 282.94 196.974 282.001 195.639C281.062 194.29 280.593 192.699 280.593 190.865C280.593 189.032 281.07 187.419 282.023 186.025C282.991 184.632 284.304 183.547 285.961 182.769C287.633 181.992 289.525 181.603 291.637 181.603C293.236 181.603 294.695 181.867 296.015 182.395C297.35 182.909 298.42 183.591 299.227 184.441C300.048 185.292 300.474 186.231 300.503 187.257L299.249 187.587L299.843 182.043ZM292.143 194.847C293.111 194.847 293.962 194.693 294.695 194.385C295.428 194.063 296 193.601 296.411 192.999C296.822 192.383 297.027 191.643 297.027 190.777C297.027 189.927 296.822 189.201 296.411 188.599C296 187.998 295.428 187.536 294.695 187.213C293.962 186.891 293.111 186.729 292.143 186.729C291.219 186.729 290.383 186.898 289.635 187.235C288.902 187.558 288.322 188.027 287.897 188.643C287.472 189.245 287.259 189.978 287.259 190.843C287.259 191.694 287.464 192.42 287.875 193.021C288.286 193.608 288.858 194.063 289.591 194.385C290.324 194.693 291.175 194.847 292.143 194.847Z" fill="black"/>
<path d="M319.901 205.407V182.043H326.655V205.407H319.901ZM323.267 178.237C322.211 178.237 321.287 177.959 320.495 177.401C319.718 176.844 319.329 176.059 319.329 175.047C319.329 174.021 319.718 173.229 320.495 172.671C321.287 172.114 322.211 171.835 323.267 171.835C324.338 171.835 325.262 172.114 326.039 172.671C326.831 173.229 327.227 174.021 327.227 175.047C327.227 176.074 326.831 176.866 326.039 177.423C325.262 177.966 324.338 178.237 323.267 178.237Z" fill="black"/>
<path d="M341.449 205.935C339.498 205.935 337.701 205.473 336.059 204.549C334.416 203.611 333.096 202.225 332.099 200.391C331.101 198.558 330.603 196.299 330.603 193.615C330.603 191.049 331.109 188.871 332.121 187.081C333.147 185.292 334.482 183.935 336.125 183.011C337.782 182.073 339.557 181.603 341.449 181.603C343.297 181.603 344.983 182.073 346.509 183.011C348.049 183.95 349.281 185.233 350.205 186.861C351.129 188.475 351.591 190.337 351.591 192.449C351.591 192.523 351.591 192.596 351.591 192.669C351.591 192.728 351.591 192.794 351.591 192.867L348.643 192.911C348.643 192.867 348.643 192.823 348.643 192.779C348.643 192.721 348.643 192.669 348.643 192.625C348.643 191.525 348.379 190.579 347.851 189.787C347.323 188.995 346.641 188.387 345.805 187.961C344.969 187.521 344.096 187.301 343.187 187.301C341.676 187.301 340.371 187.807 339.271 188.819C338.171 189.817 337.621 191.415 337.621 193.615C337.621 195.815 338.171 197.436 339.271 198.477C340.385 199.504 341.691 200.017 343.187 200.017C344.125 200.017 345.013 199.797 345.849 199.357C346.685 198.903 347.359 198.265 347.873 197.443C348.386 196.622 348.643 195.654 348.643 194.539L351.591 194.693C351.591 196.791 351.136 198.69 350.227 200.391C349.332 202.078 348.115 203.427 346.575 204.439C345.049 205.437 343.341 205.935 341.449 205.935ZM348.643 205.407V171.021H355.485V205.407H348.643Z" fill="black"/>
<path d="M363.302 195.771V191.261H378.79L378.13 192.405C378.13 192.288 378.13 192.178 378.13 192.075C378.13 191.958 378.13 191.848 378.13 191.745C378.13 190.909 377.932 190.11 377.536 189.347C377.14 188.57 376.525 187.939 375.689 187.455C374.867 186.957 373.811 186.707 372.521 186.707C371.23 186.707 370.115 186.986 369.177 187.543C368.253 188.086 367.541 188.871 367.043 189.897C366.559 190.924 366.316 192.163 366.316 193.615C366.316 195.111 366.551 196.395 367.021 197.465C367.505 198.521 368.216 199.335 369.155 199.907C370.108 200.479 371.289 200.765 372.697 200.765C373.606 200.765 374.391 200.685 375.051 200.523C375.711 200.347 376.246 200.127 376.656 199.863C377.082 199.599 377.405 199.306 377.625 198.983C377.845 198.661 377.977 198.345 378.021 198.037H384.753C384.665 199.02 384.327 199.988 383.741 200.941C383.154 201.88 382.34 202.731 381.298 203.493C380.257 204.241 378.988 204.835 377.492 205.275C376.011 205.715 374.317 205.935 372.41 205.935C369.829 205.935 367.578 205.422 365.656 204.395C363.735 203.354 362.246 201.924 361.19 200.105C360.134 198.272 359.607 196.16 359.607 193.769C359.607 191.349 360.142 189.23 361.212 187.411C362.298 185.578 363.801 184.155 365.723 183.143C367.659 182.117 369.895 181.603 372.432 181.603C375.028 181.603 377.272 182.124 379.164 183.165C381.056 184.192 382.516 185.637 383.543 187.499C384.569 189.347 385.082 191.503 385.082 193.967C385.082 194.334 385.075 194.686 385.061 195.023C385.046 195.361 385.024 195.61 384.995 195.771H363.302Z" fill="black"/>
<path d="M397.265 205.891C395.563 205.891 394.045 205.62 392.711 205.077C391.391 204.535 390.357 203.75 389.609 202.723C388.861 201.697 388.487 200.45 388.487 198.983C388.487 197.326 388.941 195.977 389.851 194.935C390.76 193.894 391.963 193.102 393.459 192.559C394.969 192.002 396.605 191.635 398.365 191.459C400.931 191.21 402.699 190.983 403.667 190.777C404.649 190.572 405.141 190.213 405.141 189.699C405.141 189.685 405.141 189.67 405.141 189.655C405.141 188.79 404.723 188.108 403.887 187.609C403.065 187.111 401.914 186.861 400.433 186.861C398.863 186.861 397.661 187.147 396.825 187.719C396.003 188.277 395.593 189.135 395.593 190.293H388.883C388.883 188.416 389.389 186.832 390.401 185.541C391.427 184.251 392.813 183.275 394.559 182.615C396.304 181.941 398.277 181.603 400.477 181.603C402.53 181.603 404.429 181.919 406.175 182.549C407.92 183.165 409.321 184.097 410.377 185.343C411.447 186.59 411.983 188.174 411.983 190.095C411.983 190.403 411.983 190.711 411.983 191.019C411.983 191.313 411.983 191.613 411.983 191.921V200.193C411.983 200.795 411.997 201.374 412.027 201.931C412.071 202.474 412.159 202.973 412.291 203.427C412.437 203.941 412.621 204.366 412.841 204.703C413.061 205.041 413.244 205.275 413.391 205.407H406.681C406.578 205.305 406.417 205.092 406.197 204.769C405.991 204.447 405.815 204.073 405.669 203.647C405.493 203.134 405.361 202.621 405.273 202.107C405.199 201.579 405.163 200.963 405.163 200.259L406.571 201.227C406.16 202.195 405.493 203.031 404.569 203.735C403.659 204.425 402.574 204.96 401.313 205.341C400.066 205.708 398.717 205.891 397.265 205.891ZM399.091 200.787C400.161 200.787 401.159 200.597 402.083 200.215C403.021 199.819 403.784 199.203 404.371 198.367C404.957 197.531 405.251 196.439 405.251 195.089V192.735L406.945 194.385C405.977 194.737 404.855 195.031 403.579 195.265C402.317 195.485 401.056 195.661 399.795 195.793C398.299 195.94 397.177 196.197 396.429 196.563C395.695 196.915 395.329 197.517 395.329 198.367C395.329 199.174 395.644 199.783 396.275 200.193C396.905 200.589 397.844 200.787 399.091 200.787Z" fill="black"/>
<path d="M426.698 205.935C425.304 205.935 423.962 205.774 422.672 205.451C421.381 205.129 420.222 204.652 419.196 204.021C418.184 203.391 417.377 202.606 416.776 201.667C416.189 200.714 415.896 199.607 415.896 198.345C415.896 198.287 415.896 198.221 415.896 198.147C415.896 198.059 415.896 197.993 415.896 197.949H422.672C422.672 197.993 422.672 198.045 422.672 198.103C422.672 198.147 422.672 198.199 422.672 198.257C422.672 199.108 423.046 199.731 423.794 200.127C424.556 200.523 425.583 200.721 426.874 200.721C427.548 200.721 428.194 200.655 428.81 200.523C429.44 200.377 429.954 200.149 430.35 199.841C430.76 199.519 430.966 199.115 430.966 198.631C430.966 197.854 430.533 197.304 429.668 196.981C428.817 196.659 427.446 196.336 425.554 196.013C424.483 195.837 423.398 195.588 422.298 195.265C421.198 194.943 420.186 194.517 419.262 193.989C418.338 193.447 417.597 192.765 417.04 191.943C416.482 191.107 416.204 190.095 416.204 188.907C416.204 187.323 416.68 185.989 417.634 184.903C418.602 183.818 419.885 182.997 421.484 182.439C423.082 181.882 424.842 181.603 426.764 181.603C428.597 181.603 430.306 181.911 431.89 182.527C433.474 183.129 434.757 184.001 435.74 185.145C436.722 186.275 437.214 187.639 437.214 189.237C437.214 189.267 437.214 189.311 437.214 189.369C437.214 189.428 437.214 189.487 437.214 189.545H430.504C430.504 189.487 430.504 189.435 430.504 189.391C430.504 189.347 430.504 189.311 430.504 189.281C430.504 188.695 430.313 188.218 429.932 187.851C429.565 187.485 429.096 187.213 428.524 187.037C427.952 186.847 427.358 186.751 426.742 186.751C426.184 186.751 425.605 186.817 425.004 186.949C424.417 187.067 423.918 187.272 423.508 187.565C423.097 187.844 422.892 188.24 422.892 188.753C422.892 189.252 423.112 189.663 423.552 189.985C423.992 190.293 424.608 190.55 425.4 190.755C426.192 190.946 427.108 191.129 428.15 191.305C429.132 191.467 430.166 191.694 431.252 191.987C432.352 192.266 433.378 192.669 434.332 193.197C435.3 193.711 436.077 194.393 436.664 195.243C437.265 196.079 437.566 197.143 437.566 198.433C437.566 199.768 437.258 200.912 436.642 201.865C436.026 202.819 435.19 203.596 434.134 204.197C433.092 204.784 431.926 205.217 430.636 205.495C429.36 205.789 428.047 205.935 426.698 205.935Z" fill="black"/>
<path d="M445.572 206.067C444.56 206.067 443.701 205.715 442.997 205.011C442.293 204.307 441.941 203.449 441.941 202.437C441.941 201.44 442.293 200.589 442.997 199.885C443.701 199.181 444.56 198.829 445.572 198.829C446.569 198.829 447.42 199.181 448.124 199.885C448.828 200.589 449.18 201.44 449.18 202.437C449.18 203.449 448.828 204.307 448.124 205.011C447.42 205.715 446.569 206.067 445.572 206.067Z" fill="black"/>
<path d="M173.52 217.957L164.104 239.231V250.407H157.306V239.231L147.934 217.957H155.15L162.08 235.821H159.352L166.282 217.957H173.52Z" fill="black"/>
<path d="M185.539 250.913C183.016 250.913 180.794 250.393 178.873 249.351C176.952 248.31 175.448 246.88 174.363 245.061C173.292 243.228 172.757 241.116 172.757 238.725C172.757 236.349 173.292 234.252 174.363 232.433C175.448 230.6 176.952 229.177 178.873 228.165C180.794 227.139 183.016 226.625 185.539 226.625C188.062 226.625 190.284 227.139 192.205 228.165C194.126 229.177 195.622 230.6 196.693 232.433C197.778 234.252 198.321 236.349 198.321 238.725C198.321 241.116 197.778 243.228 196.693 245.061C195.622 246.88 194.126 248.31 192.205 249.351C190.284 250.393 188.062 250.913 185.539 250.913ZM185.539 245.501C186.727 245.501 187.761 245.223 188.641 244.665C189.521 244.108 190.203 243.323 190.687 242.311C191.171 241.285 191.413 240.089 191.413 238.725C191.413 237.361 191.171 236.181 190.687 235.183C190.203 234.171 189.521 233.394 188.641 232.851C187.761 232.309 186.727 232.037 185.539 232.037C184.366 232.037 183.332 232.309 182.437 232.851C181.557 233.394 180.875 234.171 180.391 235.183C179.907 236.181 179.665 237.361 179.665 238.725C179.665 240.089 179.907 241.285 180.391 242.311C180.875 243.323 181.557 244.108 182.437 244.665C183.332 245.223 184.366 245.501 185.539 245.501Z" fill="black"/>
<path d="M210.875 250.847C209.218 250.847 207.854 250.583 206.783 250.055C205.712 249.513 204.869 248.787 204.253 247.877C203.637 246.968 203.204 245.956 202.955 244.841C202.706 243.727 202.581 242.597 202.581 241.453C202.581 240.925 202.581 240.368 202.581 239.781C202.581 239.195 202.581 238.593 202.581 237.977V227.043H209.401V236.899C209.401 237.398 209.401 237.882 209.401 238.351C209.401 238.821 209.401 239.253 209.401 239.649C209.401 240.632 209.511 241.534 209.731 242.355C209.951 243.177 210.354 243.837 210.941 244.335C211.542 244.834 212.393 245.083 213.493 245.083C214.564 245.083 215.473 244.783 216.221 244.181C216.969 243.565 217.541 242.781 217.937 241.827C218.333 240.874 218.531 239.891 218.531 238.879L220.445 240.441C220.445 241.908 220.218 243.272 219.763 244.533C219.323 245.795 218.692 246.902 217.871 247.855C217.05 248.794 216.045 249.527 214.857 250.055C213.684 250.583 212.356 250.847 210.875 250.847ZM218.531 250.407V227.043H225.351V250.407H218.531Z" fill="black"/>
<path d="M241.204 250.407V227.043H247.958V250.407H241.204ZM244.57 223.237C243.514 223.237 242.59 222.959 241.798 222.401C241.02 221.844 240.632 221.059 240.632 220.047C240.632 219.021 241.02 218.229 241.798 217.671C242.59 217.114 243.514 216.835 244.57 216.835C245.64 216.835 246.564 217.114 247.342 217.671C248.134 218.229 248.53 219.021 248.53 220.047C248.53 221.074 248.134 221.866 247.342 222.423C246.564 222.966 245.64 223.237 244.57 223.237Z" fill="black"/>
<path d="M269.439 250.407V240.485C269.439 239.928 269.439 239.422 269.439 238.967C269.439 238.513 269.439 238.102 269.439 237.735C269.439 236.767 269.315 235.887 269.065 235.095C268.816 234.289 268.369 233.643 267.723 233.159C267.078 232.675 266.147 232.433 264.929 232.433C263.873 232.433 262.957 232.675 262.179 233.159C261.417 233.643 260.83 234.318 260.419 235.183C260.009 236.049 259.803 237.046 259.803 238.175L257.911 236.811C257.911 234.787 258.351 233.013 259.231 231.487C260.111 229.962 261.299 228.767 262.795 227.901C264.306 227.036 265.978 226.603 267.811 226.603C269.733 226.603 271.309 226.992 272.541 227.769C273.788 228.532 274.712 229.603 275.313 230.981C275.929 232.345 276.237 233.944 276.237 235.777C276.237 236.525 276.237 237.361 276.237 238.285C276.237 239.209 276.237 240.155 276.237 241.123V250.407H269.439ZM252.983 250.407V227.043H259.803V250.407H252.983Z" fill="black"/>
<path d="M288.251 241.497C288.251 240.133 288.456 238.916 288.867 237.845C289.292 236.76 289.827 235.785 290.473 234.919C291.118 234.039 291.771 233.211 292.431 232.433C292.959 231.817 293.45 231.209 293.905 230.607C294.359 229.991 294.726 229.353 295.005 228.693C295.283 228.033 295.423 227.329 295.423 226.581C295.423 225.217 295.071 224.191 294.367 223.501C293.663 222.812 292.636 222.467 291.287 222.467C289.849 222.467 288.735 222.929 287.943 223.853C287.151 224.763 286.755 226.156 286.755 228.033H280.749C280.749 225.613 281.218 223.648 282.157 222.137C283.095 220.612 284.357 219.497 285.941 218.793C287.525 218.075 289.277 217.715 291.199 217.715C293.135 217.715 294.865 218.06 296.391 218.749C297.931 219.439 299.141 220.465 300.021 221.829C300.915 223.193 301.363 224.909 301.363 226.977C301.363 228.253 301.15 229.383 300.725 230.365C300.299 231.348 299.749 232.228 299.075 233.005C298.415 233.783 297.733 234.523 297.029 235.227C296.075 236.166 295.232 237.119 294.499 238.087C293.78 239.041 293.421 240.177 293.421 241.497H288.251ZM291.155 251.067C290.143 251.067 289.285 250.715 288.581 250.011C287.877 249.307 287.525 248.449 287.525 247.437C287.525 246.44 287.877 245.589 288.581 244.885C289.285 244.181 290.143 243.829 291.155 243.829C292.137 243.829 292.981 244.181 293.685 244.885C294.403 245.589 294.763 246.44 294.763 247.437C294.763 248.449 294.403 249.307 293.685 250.011C292.981 250.715 292.137 251.067 291.155 251.067Z" fill="black"/>
<g filter="url(#filter0_i)">
<path fill-rule="evenodd" clip-rule="evenodd" d="M77.7155 0.457653C67.5516 0.871765 59.6439 8.76911 59.2331 18.9331C58.9791 25.2178 58.7825 33.1764 58.7825 42.757C58.7825 52.4886 58.9853 60.5469 59.2451 66.877C59.6568 76.9056 67.3938 84.6818 77.4231 85.0795C83.6296 85.3256 91.6195 85.5139 101.539 85.5139C111.554 85.5139 119.602 85.322 125.834 85.0724C135.782 84.6739 143.446 77.0009 143.848 67.0526C144.101 60.7917 144.296 52.7276 144.296 42.757C144.296 32.9433 144.107 24.9767 143.86 18.7584C143.459 8.67493 135.623 0.879437 125.54 0.464898C119.195 0.204006 111.158 0 101.539 0C92.0105 0 84.0334 0.200239 77.7155 0.457653ZM85.8761 20.8443C84.3582 20.8443 83.1278 22.0747 83.1278 23.5925V35.9597C83.1278 37.4775 84.3582 38.7079 85.8761 38.7079H90.5657C87.7185 41.5866 85.9606 45.5447 85.9606 49.9134C85.9606 58.7144 93.0952 65.849 101.896 65.849C110.697 65.849 117.832 58.7144 117.832 49.9134C117.832 48.3956 116.601 47.1651 115.083 47.1651H104.644V38.7079H117.206C118.724 38.7079 119.954 37.4775 119.954 35.9597V23.5925C119.954 22.0747 118.724 20.8443 117.206 20.8443H85.8761ZM91.4571 49.9134C91.4571 45.0992 94.7159 41.0461 99.1479 39.8398V49.9133C99.1479 51.4311 100.379 52.6616 101.896 52.6616H111.97C110.763 57.0936 106.71 60.3525 101.896 60.3525C96.1308 60.3525 91.4571 55.6787 91.4571 49.9134ZM88.6243 33.2114V26.3408H114.458V33.2114H88.6243Z" fill="url(#paint0_linear)"/>
</g>
<defs>
<filter id="filter0_i" x="58.7825" y="0" width="86.4537" height="86.4537" filterUnits="userSpaceOnUse" color-interpolation-filters="sRGB">
<feFlood flood-opacity="0" result="BackgroundImageFix"/>
<feBlend mode="normal" in="SourceGraphic" in2="BackgroundImageFix" result="shape"/>
<feColorMatrix in="SourceAlpha" type="matrix" values="0 0 0 0 0 0 0 0 0 0 0 0 0 0 0 0 0 0 127 0" result="hardAlpha"/>
<feOffset dx="0.939714" dy="0.939714"/>
<feGaussianBlur stdDeviation="0.469857"/>
<feComposite in2="hardAlpha" operator="arithmetic" k2="-1" k3="1"/>
<feColorMatrix type="matrix" values="0 0 0 0 1 0 0 0 0 1 0 0 0 0 1 0 0 0 0.2 0"/>
<feBlend mode="normal" in2="shape" result="effect1_innerShadow"/>
</filter>
<linearGradient id="paint0_linear" x1="101.539" y1="0" x2="101.539" y2="85.5139" gradientUnits="userSpaceOnUse">
<stop stop-color="#353C59"/>
<stop offset="1" stop-color="#2E3552"/>
</linearGradient>
</defs>
</svg>
