<svg width="495" height="335" viewBox="0 0 495 335" fill="none" xmlns="http://www.w3.org/2000/svg">
<path fill-rule="evenodd" clip-rule="evenodd" d="M0 0H495V335H0V0ZM85.233 59.9332C85.6439 49.7691 93.5516 41.8718 103.716 41.4577C110.033 41.2002 118.01 41 127.539 41C137.158 41 145.195 41.204 151.54 41.4649C161.623 41.8794 169.459 49.6749 169.86 59.7584C170.107 65.9767 170.296 73.9433 170.296 83.757C170.296 93.7276 170.101 101.792 169.848 108.053C169.446 118.001 161.782 125.674 151.834 126.072C145.602 126.322 137.554 126.514 127.539 126.514C117.62 126.514 109.63 126.326 103.423 126.079C93.3938 125.682 85.6567 117.906 85.2451 107.877C84.9854 101.547 84.7825 93.4886 84.7825 83.757C84.7825 74.1764 84.979 66.2178 85.233 59.9332ZM394.206 91.6252C394.206 92.8485 394.118 94.0513 393.948 95.2277H377.858V95.2292H356.137C357.335 101.374 362.748 106.011 369.243 106.011C373.89 106.011 377.983 103.637 380.375 100.036H392.756C389.302 109.707 380.061 116.628 369.204 116.628C355.395 116.628 344.201 105.434 344.201 91.6252C344.201 77.8167 355.395 66.6227 369.204 66.6227C383.012 66.6227 394.206 77.8167 394.206 91.6252ZM369.242 76.9822C363.721 76.9822 358.983 80.3322 356.95 85.1102H381.534C379.5 80.3322 374.762 76.9822 369.242 76.9822ZM340.386 91.5106C340.386 105.319 330.104 116.513 317.421 116.513C311.99 116.513 306.999 114.46 303.067 111.028V131.555H292.472V67.2262H303.067V71.9931C306.999 68.561 311.99 66.5081 317.421 66.5081C330.104 66.5081 340.386 77.7021 340.386 91.5106ZM329.186 91.4958C329.186 98.8704 323.467 104.849 316.413 104.849C309.359 104.849 303.641 98.8704 303.641 91.4958C303.641 84.1212 309.359 78.1429 316.413 78.1429C323.467 78.1429 329.186 84.1212 329.186 91.4958ZM247.905 50.2758V60.7259L229.327 60.7259V116.459H217.716V60.7259H199.138V50.2758H247.905ZM275.937 67.2282H286.719L267.915 131.555H257.133L262.262 114.008H255.203L243.26 67.2315H254.042L260.013 90.6198L262.999 102.314H265.681L275.937 67.2282ZM111.465 245.549C113.108 246.473 114.904 246.935 116.855 246.935C118.747 246.935 120.456 246.437 121.981 245.439C122.751 244.933 123.44 244.343 124.049 243.668V246.407H130.891V212.021H124.049V225.736C123.419 225.069 122.708 224.495 121.915 224.011C120.39 223.073 118.703 222.603 116.855 222.603C114.963 222.603 113.188 223.073 111.531 224.011C109.888 224.935 108.553 226.292 107.527 228.081C106.515 229.871 106.009 232.049 106.009 234.615C106.009 237.299 106.508 239.558 107.505 241.391C108.502 243.225 109.822 244.611 111.465 245.549ZM124.049 233.625V233.779V233.911V235.539C124.049 236.654 123.792 237.622 123.279 238.443C122.766 239.265 122.091 239.903 121.255 240.357C120.419 240.797 119.531 241.017 118.593 241.017C117.097 241.017 115.792 240.504 114.677 239.477C113.577 238.436 113.027 236.815 113.027 234.615C113.027 232.415 113.577 230.817 114.677 229.819C115.777 228.807 117.082 228.301 118.593 228.301C119.502 228.301 120.375 228.521 121.211 228.961C122.047 229.387 122.729 229.995 123.257 230.787C123.785 231.579 124.049 232.525 124.049 233.625ZM30.752 246.407L26 213.957H33.0179L36.0875 241.485L40.9821 213.957H49.496L54.3695 241.476L57.438 213.957H64.4561L59.704 246.407H49.2321L45.2482 220.928L41.224 246.407H30.752ZM73.6338 238.465C73.4078 237.95 73.2363 237.385 73.1191 236.771H91.6078C91.6251 236.676 91.6398 236.55 91.652 236.393C91.6605 236.285 91.6677 236.161 91.6738 236.023C91.6885 235.686 91.6958 235.334 91.6958 234.967C91.6958 232.503 91.1825 230.347 90.1558 228.499C89.1292 226.637 87.6698 225.192 85.7778 224.165C83.8857 223.124 81.6417 222.603 79.0458 222.603C76.5084 222.603 74.2717 223.117 72.3358 224.143C70.4144 225.155 68.9111 226.578 67.8258 228.411C66.7551 230.23 66.2197 232.349 66.2197 234.769C66.2197 237.16 66.7478 239.272 67.8038 241.105C68.8597 242.924 70.3484 244.354 72.2698 245.395C74.1912 246.422 76.4425 246.935 79.0238 246.935C80.9304 246.935 82.6244 246.715 84.1058 246.275C85.6018 245.835 86.8705 245.241 87.9117 244.493C88.9531 243.731 89.7671 242.88 90.3538 241.941C90.9404 240.988 91.2778 240.02 91.3657 239.037H84.6338C84.5897 239.345 84.4578 239.661 84.2378 239.983C84.0178 240.306 83.6951 240.599 83.2698 240.863C82.8591 241.127 82.3237 241.347 81.6638 241.523C81.0038 241.685 80.2191 241.765 79.3098 241.765C77.9017 241.765 76.7211 241.479 75.7678 240.907C74.8291 240.335 74.1178 239.521 73.6338 238.465ZM84.7213 232.261H73.184C73.3009 231.771 73.4581 231.317 73.6558 230.897C74.1544 229.871 74.8657 229.086 75.7898 228.543C76.7284 227.986 77.8431 227.707 79.1338 227.707C80.4244 227.707 81.4805 227.957 82.3018 228.455C83.1378 228.939 83.7538 229.57 84.1498 230.347C84.4688 230.962 84.6592 231.6 84.7213 232.261ZM142.427 238.465C142.201 237.95 142.029 237.385 141.912 236.771H160.401C160.43 236.61 160.452 236.361 160.467 236.023C160.475 235.83 160.481 235.632 160.485 235.428C160.487 235.277 160.489 235.124 160.489 234.967C160.489 232.503 159.975 230.347 158.949 228.499C157.922 226.637 156.463 225.192 154.571 224.165C152.679 223.124 150.435 222.603 147.839 222.603C145.301 222.603 143.065 223.117 141.129 224.143C139.207 225.155 137.704 226.578 136.619 228.411C135.548 230.23 135.013 232.349 135.013 234.769C135.013 237.16 135.541 239.272 136.597 241.105C137.653 242.924 139.141 244.354 141.063 245.395C142.984 246.422 145.235 246.935 147.817 246.935C149.723 246.935 151.417 246.715 152.899 246.275C154.395 245.835 155.663 245.241 156.705 244.493C157.746 243.731 158.56 242.88 159.147 241.941C159.733 240.988 160.071 240.02 160.159 239.037H153.427C153.383 239.345 153.251 239.661 153.031 239.983C152.811 240.306 152.488 240.599 152.063 240.863C151.652 241.127 151.117 241.347 150.457 241.523C149.797 241.685 149.012 241.765 148.103 241.765C146.695 241.765 145.514 241.479 144.561 240.907C143.622 240.335 142.911 239.521 142.427 238.465ZM153.514 232.261H141.977C142.094 231.771 142.251 231.317 142.449 230.897C142.947 229.871 143.659 229.086 144.583 228.543C145.521 227.986 146.636 227.707 147.927 227.707C149.217 227.707 150.273 227.957 151.095 228.455C151.931 228.939 152.547 229.57 152.943 230.347C153.262 230.962 153.452 231.6 153.514 232.261ZM168.117 246.077C169.452 246.62 170.97 246.891 172.671 246.891C174.123 246.891 175.472 246.708 176.719 246.341C177.98 245.96 179.066 245.425 179.975 244.735C180.302 244.486 180.597 244.22 180.86 243.938C180.922 244.174 180.994 244.411 181.075 244.647C181.222 245.073 181.398 245.447 181.603 245.769C181.659 245.852 181.711 245.927 181.76 245.995C181.808 246.063 181.853 246.124 181.894 246.177C181.951 246.253 182.001 246.314 182.043 246.361C182.059 246.378 182.073 246.394 182.087 246.407H188.797C188.65 246.275 188.467 246.041 188.247 245.703C188.027 245.366 187.844 244.941 187.697 244.427C187.565 243.973 187.477 243.474 187.433 242.931C187.404 242.374 187.389 241.795 187.389 241.193V232.921V232.019V231.095C187.389 229.174 186.854 227.59 185.783 226.343C184.727 225.097 183.326 224.165 181.581 223.549C179.836 222.919 177.936 222.603 175.883 222.603C173.683 222.603 171.71 222.941 169.965 223.615C168.22 224.275 166.834 225.251 165.807 226.541C164.795 227.832 164.289 229.416 164.289 231.293H170.999C170.999 230.135 171.41 229.277 172.231 228.719C173.067 228.147 174.27 227.861 175.839 227.861C177.32 227.861 178.472 228.111 179.293 228.609C180.129 229.108 180.547 229.79 180.547 230.655V230.699C180.547 231.213 180.056 231.572 179.073 231.777C178.105 231.983 176.338 232.21 173.771 232.459C172.011 232.635 170.376 233.002 168.865 233.559C167.369 234.102 166.166 234.894 165.257 235.935C164.348 236.977 163.893 238.326 163.893 239.983C163.893 241.45 164.267 242.697 165.015 243.723C165.763 244.75 166.797 245.535 168.117 246.077ZM177.489 241.215C176.565 241.597 175.568 241.787 174.497 241.787C173.25 241.787 172.312 241.589 171.681 241.193C171.05 240.783 170.735 240.174 170.735 239.367C170.735 238.517 171.102 237.915 171.835 237.563C172.583 237.197 173.705 236.94 175.201 236.793C176.462 236.661 177.724 236.485 178.985 236.265C179.575 236.157 180.132 236.036 180.657 235.902V236.089C180.657 237.439 180.364 238.531 179.777 239.367C179.19 240.203 178.428 240.819 177.489 241.215ZM199.442 212.021V246.407H192.71V212.021H199.442ZM215.62 223.043V246.407H222.374V223.043H215.62ZM216.214 218.401C217.006 218.959 217.93 219.237 218.986 219.237C220.056 219.237 220.98 218.966 221.758 218.423C222.55 217.866 222.946 217.074 222.946 216.047C222.946 215.021 222.55 214.229 221.758 213.671C220.98 213.114 220.056 212.835 218.986 212.835C217.93 212.835 217.006 213.114 216.214 213.671C215.436 214.229 215.048 215.021 215.048 216.047C215.048 217.059 215.436 217.844 216.214 218.401ZM243.855 246.407V236.485V234.967V233.735C243.855 232.767 243.731 231.887 243.481 231.095C243.232 230.289 242.785 229.643 242.139 229.159C241.494 228.675 240.563 228.433 239.345 228.433C238.289 228.433 237.373 228.675 236.595 229.159C235.833 229.643 235.246 230.318 234.835 231.183C234.425 232.049 234.219 233.046 234.219 234.175V246.407H227.399V223.043H234.219V226.602C235.021 225.492 236.018 224.592 237.211 223.901C238.722 223.036 240.394 222.603 242.227 222.603C244.149 222.603 245.725 222.992 246.957 223.769C248.204 224.532 249.128 225.603 249.729 226.981C250.345 228.345 250.653 229.944 250.653 231.777V234.285V237.123V246.407H243.855ZM275.735 245.439C277.275 246.422 278.969 246.913 280.817 246.913C282.753 246.913 284.542 246.451 286.185 245.527C287.827 244.589 289.147 243.21 290.145 241.391C291.142 239.558 291.641 237.299 291.641 234.615C291.641 232.049 291.127 229.871 290.101 228.081C289.089 226.292 287.761 224.935 286.119 224.011C284.476 223.087 282.709 222.625 280.817 222.625C278.969 222.625 277.275 223.095 275.735 224.033C274.942 224.509 274.23 225.078 273.601 225.741V212.021H266.759V246.407H273.601V243.647C274.23 244.336 274.942 244.933 275.735 245.439ZM273.601 235.627V235.495V235.363V233.625C273.601 232.525 273.865 231.579 274.393 230.787C274.921 229.995 275.603 229.387 276.439 228.961C277.275 228.521 278.147 228.301 279.057 228.301C280.567 228.301 281.873 228.807 282.973 229.819C284.073 230.817 284.623 232.415 284.623 234.615C284.623 236.815 284.065 238.436 282.951 239.477C281.851 240.504 280.553 241.017 279.057 241.017C278.147 241.017 277.275 240.797 276.439 240.357C275.603 239.917 274.921 239.294 274.393 238.487C273.865 237.666 273.601 236.713 273.601 235.627ZM295.628 246.407V223.043H302.382V246.407H295.628ZM298.994 219.237C297.938 219.237 297.014 218.959 296.222 218.401C295.444 217.844 295.056 217.059 295.056 216.047C295.056 215.021 295.444 214.229 296.222 213.671C297.014 213.114 297.938 212.835 298.994 212.835C300.064 212.835 300.988 213.114 301.766 213.671C302.557 214.229 302.953 215.021 302.953 216.047C302.953 217.074 302.557 217.866 301.766 218.423C300.988 218.966 300.064 219.237 298.994 219.237ZM327.295 244.471C326.224 244.061 324.97 243.782 323.533 243.635L315.305 242.821C314.19 242.719 313.421 242.521 312.995 242.227C312.584 241.934 312.379 241.582 312.379 241.171C312.379 240.761 312.562 240.401 312.929 240.093L312.936 240.088C314.47 240.59 316.221 240.841 318.187 240.841C320.446 240.841 322.316 240.46 323.797 239.697C325.293 238.935 326.489 237.893 327.383 236.573C328.278 235.239 328.953 233.721 329.407 232.019L331.849 223.043H325.843L325.548 225.802C325.448 225.68 325.342 225.56 325.227 225.441C324.421 224.591 323.35 223.909 322.015 223.395C320.695 222.867 319.236 222.603 317.637 222.603C315.525 222.603 313.633 222.992 311.961 223.769C310.304 224.547 308.991 225.632 308.023 227.025C307.07 228.419 306.593 230.032 306.593 231.865C306.593 233.699 307.062 235.29 308.001 236.639C308.426 237.244 308.932 237.786 309.52 238.268C309.347 238.381 309.163 238.513 308.969 238.663C308.382 239.103 307.862 239.668 307.407 240.357C306.953 241.032 306.725 241.78 306.725 242.601C306.725 243.921 307.26 244.97 308.331 245.747C309.402 246.525 310.751 246.994 312.379 247.155L321.223 248.057C322.059 248.145 322.792 248.292 323.423 248.497C324.068 248.703 324.391 249.135 324.391 249.795C324.391 250.25 324.142 250.653 323.643 251.005C323.159 251.357 322.448 251.621 321.509 251.797C320.585 251.988 319.47 252.083 318.165 252.083C316.317 252.083 314.807 251.893 313.633 251.511C312.474 251.13 311.895 250.551 311.895 249.773L311.896 249.708L311.896 249.671C311.897 249.643 311.898 249.615 311.9 249.588C311.905 249.475 311.915 249.37 311.931 249.271C311.941 249.21 311.952 249.152 311.966 249.096C311.978 249.049 311.991 249.003 312.005 248.959C312.036 248.888 312.066 248.822 312.095 248.763C312.112 248.728 312.129 248.695 312.145 248.665C312.181 248.599 312.215 248.543 312.247 248.497L306.043 247.595C305.853 247.903 305.691 248.27 305.559 248.695C305.442 249.135 305.383 249.627 305.383 250.169C305.383 252.091 306.476 253.623 308.661 254.767C310.861 255.926 313.963 256.505 317.967 256.505C320.681 256.505 322.99 256.227 324.897 255.669C326.804 255.112 328.249 254.298 329.231 253.227C330.229 252.171 330.727 250.888 330.727 249.377C330.727 248.072 330.427 247.031 329.825 246.253C329.224 245.461 328.38 244.867 327.295 244.471ZM320.695 235.385C319.962 235.693 319.111 235.847 318.143 235.847C317.175 235.847 316.324 235.693 315.591 235.385C314.858 235.063 314.286 234.608 313.875 234.021C313.464 233.42 313.259 232.694 313.259 231.843C313.259 230.978 313.472 230.245 313.897 229.643C314.323 229.027 314.902 228.558 315.635 228.235C316.383 227.898 317.219 227.729 318.143 227.729C319.111 227.729 319.962 227.891 320.695 228.213C321.428 228.536 322 228.998 322.411 229.599C322.822 230.201 323.027 230.927 323.027 231.777C323.027 232.643 322.822 233.383 322.411 233.999C322 234.601 321.428 235.063 320.695 235.385ZM345.901 246.407V223.043H352.655V246.407H345.901ZM349.267 219.237C348.211 219.237 347.287 218.959 346.495 218.401C345.718 217.844 345.329 217.059 345.329 216.047C345.329 215.021 345.718 214.229 346.495 213.671C347.287 213.114 348.211 212.835 349.267 212.835C350.338 212.835 351.262 213.114 352.039 213.671C352.831 214.229 353.227 215.021 353.227 216.047C353.227 217.074 352.831 217.866 352.039 218.423C351.262 218.966 350.338 219.237 349.267 219.237ZM362.059 245.549C363.701 246.473 365.498 246.935 367.449 246.935C369.341 246.935 371.049 246.437 372.575 245.439C373.345 244.933 374.034 244.343 374.643 243.668V246.407H381.485V212.021H374.643V225.736C374.013 225.069 373.302 224.495 372.509 224.011C370.983 223.073 369.297 222.603 367.449 222.603C365.557 222.603 363.782 223.073 362.125 224.011C360.482 224.935 359.147 226.292 358.121 228.081C357.109 229.871 356.603 232.049 356.603 234.615C356.603 237.299 357.101 239.558 358.099 241.391C359.096 243.225 360.416 244.611 362.059 245.549ZM374.643 233.625V233.779V233.911V235.539C374.643 236.654 374.386 237.622 373.873 238.443C373.359 239.265 372.685 239.903 371.849 240.357C371.013 240.797 370.125 241.017 369.187 241.017C367.691 241.017 366.385 240.504 365.271 239.477C364.171 238.436 363.621 236.815 363.621 234.615C363.621 232.415 364.171 230.817 365.271 229.819C366.371 228.807 367.676 228.301 369.187 228.301C370.096 228.301 370.969 228.521 371.805 228.961C372.641 229.387 373.323 229.995 373.851 230.787C374.379 231.579 374.643 232.525 374.643 233.625ZM393.021 238.465C392.795 237.95 392.623 237.385 392.506 236.771H410.995C411.024 236.61 411.046 236.361 411.061 236.023C411.075 235.686 411.083 235.334 411.083 234.967C411.083 232.503 410.569 230.347 409.542 228.499C408.516 226.637 407.057 225.192 405.165 224.165C403.272 223.124 401.028 222.603 398.432 222.603C395.895 222.603 393.658 223.117 391.723 224.143C389.801 225.155 388.298 226.578 387.213 228.411C386.142 230.23 385.606 232.349 385.606 234.769C385.606 237.16 386.135 239.272 387.19 241.105C388.246 242.924 389.735 244.354 391.656 245.395C393.578 246.422 395.829 246.935 398.411 246.935C400.317 246.935 402.011 246.715 403.492 246.275C404.989 245.835 406.257 245.241 407.298 244.493C408.34 243.731 409.154 242.88 409.74 241.941C410.327 240.988 410.665 240.02 410.752 239.037H404.021C403.977 239.345 403.844 239.661 403.625 239.983C403.405 240.306 403.082 240.599 402.656 240.863C402.246 241.127 401.71 241.347 401.051 241.523C400.391 241.685 399.606 241.765 398.697 241.765C397.288 241.765 396.108 241.479 395.155 240.907C394.216 240.335 393.505 239.521 393.021 238.465ZM404.108 232.261H392.571C392.688 231.771 392.845 231.317 393.042 230.897C393.541 229.871 394.253 229.086 395.177 228.543C396.115 227.986 397.23 227.707 398.521 227.707C399.811 227.707 400.867 227.957 401.688 228.455C402.525 228.939 403.141 229.57 403.536 230.347C403.855 230.962 404.046 231.6 404.108 232.261ZM418.711 246.077C420.045 246.62 421.563 246.891 423.265 246.891C424.717 246.891 426.066 246.708 427.313 246.341C428.574 245.96 429.659 245.425 430.569 244.735C430.896 244.486 431.191 244.22 431.453 243.938C431.473 244.011 431.493 244.084 431.514 244.157C431.526 244.201 431.539 244.244 431.553 244.288C431.573 244.357 431.595 244.425 431.617 244.494L431.639 244.561L431.669 244.647C431.815 245.073 431.991 245.447 432.197 245.769C432.417 246.092 432.578 246.305 432.681 246.407H439.391C439.244 246.275 439.061 246.041 438.841 245.703C438.621 245.366 438.437 244.941 438.291 244.427C438.159 243.973 438.071 243.474 438.027 242.931C437.997 242.374 437.983 241.795 437.983 241.193V232.921V232.019V231.095C437.983 229.174 437.447 227.59 436.377 226.343C435.321 225.097 433.92 224.165 432.175 223.549C430.429 222.919 428.53 222.603 426.477 222.603C424.277 222.603 422.304 222.941 420.559 223.615C418.813 224.275 417.427 225.251 416.401 226.541C415.389 227.832 414.883 229.416 414.883 231.293H421.593C421.593 230.135 422.003 229.277 422.825 228.719C423.661 228.147 424.863 227.861 426.433 227.861C427.914 227.861 429.065 228.111 429.887 228.609C430.723 229.108 431.141 229.79 431.141 230.655V230.699C431.141 231.213 430.649 231.572 429.667 231.777C428.699 231.983 426.931 232.21 424.365 232.459C422.605 232.635 420.969 233.002 419.459 233.559C417.963 234.102 416.76 234.894 415.851 235.935C414.941 236.977 414.487 238.326 414.487 239.983C414.487 241.45 414.861 242.697 415.609 243.723C416.357 244.75 417.391 245.535 418.711 246.077ZM428.083 241.215C427.159 241.597 426.161 241.787 425.091 241.787C423.844 241.787 422.905 241.589 422.275 241.193C421.644 240.783 421.329 240.174 421.329 239.367C421.329 238.517 421.695 237.915 422.429 237.563C423.177 237.197 424.299 236.94 425.795 236.793C427.056 236.661 428.317 236.485 429.579 236.265C430.169 236.157 430.726 236.036 431.251 235.902V236.089C431.251 237.439 430.957 238.531 430.371 239.367C429.784 240.203 429.021 240.819 428.083 241.215ZM452.698 246.935C451.304 246.935 449.962 246.774 448.672 246.451C447.381 246.129 446.222 245.652 445.196 245.021C444.184 244.391 443.377 243.606 442.776 242.667C442.189 241.714 441.896 240.607 441.896 239.345V239.147V238.949H448.672V239.103V239.257C448.672 240.108 449.046 240.731 449.794 241.127C450.556 241.523 451.583 241.721 452.874 241.721C453.548 241.721 454.194 241.655 454.81 241.523C455.44 241.377 455.953 241.149 456.35 240.841C456.76 240.519 456.966 240.115 456.966 239.631C456.966 238.854 456.533 238.304 455.668 237.981C454.817 237.659 453.446 237.336 451.554 237.013C450.483 236.837 449.398 236.588 448.298 236.265C447.198 235.943 446.186 235.517 445.262 234.989C444.338 234.447 443.597 233.765 443.04 232.943C442.482 232.107 442.204 231.095 442.204 229.907C442.204 228.323 442.68 226.989 443.634 225.903C444.602 224.818 445.885 223.997 447.484 223.439C449.082 222.882 450.842 222.603 452.764 222.603C454.597 222.603 456.306 222.911 457.89 223.527C459.474 224.129 460.757 225.001 461.74 226.145C462.722 227.275 463.214 228.639 463.214 230.237V230.369V230.545H456.504V230.391V230.281C456.504 229.695 456.313 229.218 455.932 228.851C455.565 228.485 455.096 228.213 454.524 228.037C453.952 227.847 453.358 227.751 452.742 227.751C452.184 227.751 451.605 227.817 451.004 227.949C450.417 228.067 449.918 228.272 449.508 228.565C449.097 228.844 448.892 229.24 448.892 229.753C448.892 230.252 449.112 230.663 449.552 230.985C449.992 231.293 450.608 231.55 451.4 231.755C452.192 231.946 453.108 232.129 454.15 232.305C455.132 232.467 456.166 232.694 457.252 232.987C458.352 233.266 459.378 233.669 460.332 234.197C461.3 234.711 462.077 235.393 462.664 236.243C463.265 237.079 463.566 238.143 463.566 239.433C463.566 240.768 463.258 241.912 462.642 242.865C462.026 243.819 461.19 244.596 460.134 245.197C459.092 245.784 457.926 246.217 456.635 246.495C455.36 246.789 454.047 246.935 452.698 246.935ZM468.998 246.011C469.702 246.715 470.559 247.067 471.572 247.067C472.569 247.067 473.42 246.715 474.124 246.011C474.828 245.307 475.179 244.449 475.179 243.437C475.179 242.44 474.828 241.589 474.124 240.885C473.42 240.181 472.569 239.829 471.572 239.829C470.559 239.829 469.702 240.181 468.998 240.885C468.293 241.589 467.942 242.44 467.942 243.437C467.942 244.449 468.293 245.307 468.998 246.011ZM199.52 258.957L190.104 280.231V291.407H183.306V280.231L173.934 258.957H181.15L186.716 273.305L192.282 258.957H199.52ZM204.873 290.351C206.794 291.393 209.016 291.913 211.539 291.913C214.062 291.913 216.284 291.393 218.205 290.351C220.126 289.31 221.622 287.88 222.693 286.061C223.778 284.228 224.321 282.116 224.321 279.725C224.321 277.349 223.778 275.252 222.693 273.433C221.622 271.6 220.126 270.177 218.205 269.165C216.284 268.139 214.062 267.625 211.539 267.625C209.016 267.625 206.794 268.139 204.873 269.165C202.952 270.177 201.448 271.6 200.363 273.433C199.292 275.252 198.757 277.349 198.757 279.725C198.757 282.116 199.292 284.228 200.363 286.061C201.448 287.88 202.952 289.31 204.873 290.351ZM214.641 285.665C213.761 286.223 212.727 286.501 211.539 286.501C210.366 286.501 209.332 286.223 208.437 285.665C207.557 285.108 206.875 284.323 206.391 283.311C205.907 282.285 205.665 281.089 205.665 279.725C205.665 278.361 205.907 277.181 206.391 276.183C206.875 275.171 207.557 274.394 208.437 273.851C209.332 273.309 210.366 273.037 211.539 273.037C212.727 273.037 213.761 273.309 214.641 273.851C215.521 274.394 216.203 275.171 216.687 276.183C217.171 277.181 217.413 278.361 217.413 279.725C217.413 281.089 217.171 282.285 216.687 283.311C216.203 284.323 215.521 285.108 214.641 285.665ZM236.875 291.847C235.218 291.847 233.854 291.583 232.783 291.055C231.712 290.513 230.869 289.787 230.253 288.877C229.637 287.968 229.204 286.956 228.955 285.841C228.706 284.727 228.581 283.597 228.581 282.453V280.781V278.977V268.043H235.401V277.899V279.351V280.649C235.401 281.632 235.511 282.534 235.731 283.355C235.951 284.177 236.354 284.837 236.941 285.335C237.542 285.834 238.393 286.083 239.493 286.083C240.564 286.083 241.473 285.783 242.221 285.181C242.969 284.565 243.541 283.781 243.937 282.827C244.333 281.874 244.531 280.891 244.531 279.879V268.043H251.351V291.407H244.531V287.996C244.327 288.295 244.107 288.582 243.871 288.855C243.05 289.794 242.045 290.527 240.857 291.055C239.684 291.583 238.356 291.847 236.875 291.847ZM267.204 268.043V291.407H273.958V268.043H267.204ZM267.798 263.401C268.59 263.959 269.514 264.237 270.57 264.237C271.64 264.237 272.564 263.966 273.342 263.423C274.134 262.866 274.53 262.074 274.53 261.047C274.53 260.021 274.134 259.229 273.342 258.671C272.564 258.114 271.64 257.835 270.57 257.835C269.514 257.835 268.59 258.114 267.798 258.671C267.02 259.229 266.632 260.021 266.632 261.047C266.632 262.059 267.02 262.844 267.798 263.401ZM295.439 291.407V281.485V279.967V278.735C295.439 277.767 295.315 276.887 295.065 276.095C294.816 275.289 294.369 274.643 293.723 274.159C293.078 273.675 292.147 273.433 290.929 273.433C289.873 273.433 288.957 273.675 288.179 274.159C287.417 274.643 286.83 275.318 286.419 276.183C286.009 277.049 285.803 278.046 285.803 279.175V291.407H278.983V268.043H285.803V271.602C286.605 270.492 287.602 269.592 288.795 268.901C290.306 268.036 291.978 267.603 293.811 267.603C295.733 267.603 297.309 267.992 298.541 268.769C299.788 269.532 300.712 270.603 301.313 271.981C301.929 273.345 302.237 274.944 302.237 276.777V279.285V282.123V291.407H295.439ZM314.867 278.845C314.456 279.916 314.251 281.133 314.251 282.497H319.421C319.421 281.177 319.78 280.041 320.499 279.087C321.232 278.119 322.075 277.166 323.029 276.227C323.733 275.523 324.415 274.783 325.075 274.005C325.749 273.228 326.299 272.348 326.725 271.365C327.15 270.383 327.363 269.253 327.363 267.977C327.363 265.909 326.915 264.193 326.021 262.829C325.141 261.465 323.931 260.439 322.391 259.749C320.865 259.06 319.135 258.715 317.199 258.715C315.277 258.715 313.525 259.075 311.941 259.793C310.357 260.497 309.095 261.612 308.157 263.137C307.218 264.648 306.749 266.613 306.749 269.033H312.755C312.755 267.156 313.151 265.763 313.943 264.853C314.735 263.929 315.849 263.467 317.287 263.467C318.636 263.467 319.663 263.812 320.367 264.501C321.071 265.191 321.423 266.217 321.423 267.581C321.423 268.329 321.283 269.033 321.005 269.693C320.726 270.353 320.359 270.991 319.905 271.607C319.45 272.209 318.959 272.817 318.431 273.433C317.771 274.211 317.118 275.039 316.473 275.919C315.827 276.785 315.292 277.76 314.867 278.845ZM314.581 291.011C315.285 291.715 316.143 292.067 317.155 292.067C318.137 292.067 318.981 291.715 319.685 291.011C320.403 290.307 320.763 289.449 320.763 288.437C320.763 287.44 320.403 286.589 319.685 285.885C318.981 285.181 318.137 284.829 317.155 284.829C316.143 284.829 315.285 285.181 314.581 285.885C313.877 286.589 313.525 287.44 313.525 288.437C313.525 289.449 313.877 290.307 314.581 291.011Z" fill="#C4C4C4"/>
<path fill-rule="evenodd" clip-rule="evenodd" d="M109.128 64.5925C109.128 63.0747 110.358 61.8443 111.876 61.8443H143.206C144.724 61.8443 145.954 63.0747 145.954 64.5925V76.9597C145.954 78.4775 144.724 79.7079 143.206 79.7079H130.644V88.1651H141.083C142.601 88.1651 143.832 89.3956 143.832 90.9134C143.832 99.7144 136.697 106.849 127.896 106.849C119.095 106.849 111.961 99.7144 111.961 90.9134C111.961 86.5447 113.719 82.5866 116.566 79.7079H111.876C110.358 79.7079 109.128 78.4775 109.128 76.9597V64.5925ZM125.148 80.8398C120.716 82.0461 117.457 86.0992 117.457 90.9134C117.457 96.6787 122.131 101.352 127.896 101.352C132.71 101.352 136.763 98.0936 137.97 93.6616H127.896L127.896 90.9134L125.148 90.9133V80.8398ZM127.896 90.9134L125.148 90.9133C125.148 92.4311 126.379 93.6616 127.896 93.6616L127.896 90.9134ZM114.624 67.3408V74.2114H140.458V67.3408H114.624Z" fill="#C4C4C4"/>
</svg>
